<svg xmlns="http://www.w3.org/2000/svg" viewBox="0 0 800 600">
  <rect x="0" y="0" width="800" height="600" fill="#2b2b2b"/>
  
  <!-- Top Bar -->
  <rect x="0" y="0" width="800" height="50" fill="#3c3f41"/>
  <text x="20" y="30" font-family="Arial" font-size="20" fill="#a9b7c6">DocuForge</text>
  
  <!-- Search Bar -->
  <rect x="200" y="10" width="400" height="30" fill="#323232" rx="5"/>
  <text x="210" y="30" font-family="Arial" font-size="14" fill="#5e6060">Search documents...</text>
  
  <!-- New Document Button -->
  <rect x="620" y="10" width="160" height="30" fill="#388e3c" rx="5"/>
  <text x="650" y="30" font-family="Arial" font-size="14" fill="#ffffff">New Document</text>
  
  <!-- Main Content Area -->
  <rect x="20" y="70" width="760" height="510" fill="#323232"/>
  
  <!-- Documents List Header -->
  <rect x="20" y="70" width="760" height="40" fill="#3c3f41"/>
  <text x="40" y="95" font-family="Arial" font-size="16" fill="#a9b7c6">Documents</text>
  
  <!-- Sort Options -->
  <text x="600" y="95" font-family="Arial" font-size="14" fill="#a9b7c6">Sort by:</text>
  <rect x="660" y="75" width="100" height="30" fill="#323232" rx="5"/>
  <text x="670" y="95" font-family="Arial" font-size="14" fill="#a9b7c6">Date ▼</text>
  
  <!-- Scrollable List Area -->
  <rect x="20" y="110" width="760" height="430" fill="#323232"/>
  
  <!-- Document Items -->
  <rect x="30" y="120" width="740" height="60" fill="#3c3f41" rx="5"/>
  <text x="50" y="150" font-family="Arial" font-size="16" fill="#a9b7c6">Document 1.docuforge</text>
  <text x="50" y="170" font-family="Arial" font-size="12" fill="#5e6060">Last edited: 2 days ago</text>
  
  <rect x="30" y="190" width="740" height="60" fill="#3c3f41" rx="5"/>
  <text x="50" y="220" font-family="Arial" font-size="16" fill="#a9b7c6">Project Overview.docuforge</text>
  <text x="50" y="240" font-family="Arial" font-size="12" fill="#5e6060">Last edited: 1 week ago</text>
  
  <rect x="30" y="260" width="740" height="60" fill="#3c3f41" rx="5"/>
  <text x="50" y="290" font-family="Arial" font-size="16" fill="#a9b7c6">Meeting Notes.docuforge</text>
  <text x="50" y="310" font-family="Arial" font-size="12" fill="#5e6060">Last edited: 2 weeks ago</text>
  
  <rect x="30" y="330" width="740" height="60" fill="#3c3f41" rx="5"/>
  <text x="50" y="360" font-family="Arial" font-size="16" fill="#a9b7c6">Q3 Report.docuforge</text>
  <text x="50" y="380" font-family="Arial" font-size="12" fill="#5e6060">Last edited: 1 month ago</text>
  
  <!-- Scrollbar -->
  <rect x="770" y="110" width="10" height="430" fill="#3c3f41" rx="5"/>
  <rect x="770" y="110" width="10" height="100" fill="#5e6060" rx="5"/>
  
  <!-- Import External Resource Button -->
  <rect x="540" y="550" width="240" height="30" fill="#3c3f41" rx="5"/>
  <text x="570" y="570" font-family="Arial" font-size="14" fill="#a9b7c6">Import External Resource</text>
</svg>
